<svg id="visual" viewBox="0 0 900 600" width="900" height="600" xmlns="http://www.w3.org/2000/svg" xmlns:xlink="http://www.w3.org/1999/xlink" version="1.1"><rect x="0" y="0" width="900" height="600" fill="#002233"></rect><path d="M233 0L235.5 14.3C238 28.7 243 57.3 255.5 85.8C268 114.3 288 142.7 283.5 171.2C279 199.7 250 228.3 238.3 257C226.7 285.7 232.3 314.3 221.5 343C210.7 371.7 183.3 400.3 171.8 428.8C160.3 457.3 164.7 485.7 162 514.2C159.3 542.7 149.7 571.3 144.8 585.7L140 600L0 600L0 585.7C0 571.3 0 542.7 0 514.2C0 485.7 0 457.3 0 428.8C0 400.3 0 371.7 0 343C0 314.3 0 285.7 0 257C0 228.3 0 199.7 0 171.2C0 142.7 0 114.3 0 85.8C0 57.3 0 28.7 0 14.3L0 0Z" fill="#0066FF" stroke-linecap="round" stroke-linejoin="miter"></path></svg>